<svg width="51" height="51" viewBox="0 0 51 51" fill="none" xmlns="http://www.w3.org/2000/svg">
<path d="M29.2185 19.125C29.2185 18.7023 29.3865 18.2969 29.6853 17.998C29.9842 17.6992 30.3896 17.5312 30.8123 17.5312H38.2498C38.6725 17.5312 39.0779 17.6992 39.3767 17.998C39.6756 18.2969 39.8435 18.7023 39.8435 19.125V26.5625C39.8435 26.9852 39.6756 27.3906 39.3767 27.6895C39.0779 27.9883 38.6725 28.1562 38.2498 28.1562C37.8271 28.1562 37.4217 27.9883 37.1228 27.6895C36.824 27.3906 36.656 26.9852 36.656 26.5625V22.9713L26.626 33.0012C26.3272 33.2997 25.9221 33.4673 25.4998 33.4673C25.0775 33.4673 24.6724 33.2997 24.3735 33.0012L19.1248 27.7525L13.876 33.0012C13.5739 33.2828 13.1743 33.436 12.7614 33.4287C12.3485 33.4215 11.9546 33.2542 11.6626 32.9622C11.3706 32.6702 11.2033 32.2762 11.196 31.8634C11.1888 31.4505 11.342 31.0509 11.6235 30.7488L17.9985 24.3738C18.2974 24.0753 18.7025 23.9077 19.1248 23.9077C19.5471 23.9077 19.9522 24.0753 20.251 24.3738L25.4998 29.6225L34.4035 20.7188H30.8123C30.3896 20.7188 29.9842 20.5508 29.6853 20.252C29.3865 19.9531 29.2185 19.5477 29.2185 19.125Z" fill="white"/>
</svg>
